<mxfile host="app.diagrams.net" modified="2021-07-06T04:02:07.613Z" agent="5.0 (Macintosh; Intel Mac OS X 10_15_0) AppleWebKit/537.36 (KHTML, like Gecko) Chrome/91.0.4472.114 Safari/537.36" etag="oZa3HNHtNmnpA9jDiGKM" version="14.2.7" type="github">
  <diagram id="3d2MYOL8zR_ViiIpR0bZ" name="Page-1">
    <mxGraphModel dx="2253" dy="1963" grid="1" gridSize="10" guides="1" tooltips="1" connect="1" arrows="1" fold="1" page="1" pageScale="1" pageWidth="827" pageHeight="1169" math="0" shadow="0">
      <root>
        <mxCell id="0" />
        <mxCell id="1" parent="0" />
        <mxCell id="brHE4YqnveVC_KoyLmaR-33" value="" style="rounded=0;whiteSpace=wrap;html=1;" vertex="1" parent="1">
          <mxGeometry x="-270" y="-320" width="1310" height="700" as="geometry" />
        </mxCell>
        <mxCell id="brHE4YqnveVC_KoyLmaR-1" value="连接器" style="rounded=0;whiteSpace=wrap;html=1;" vertex="1" parent="1">
          <mxGeometry x="-180" y="-300" width="140" height="180" as="geometry" />
        </mxCell>
        <mxCell id="brHE4YqnveVC_KoyLmaR-2" value="命令分发器&lt;br&gt;（5.6版本&amp;amp;8.0版本&lt;br&gt;）" style="rhombus;whiteSpace=wrap;html=1;fillColor=#f8cecc;strokeColor=#b85450;" vertex="1" parent="1">
          <mxGeometry x="-150" y="-90" width="80" height="80" as="geometry" />
        </mxCell>
        <mxCell id="brHE4YqnveVC_KoyLmaR-3" value="" style="endArrow=classic;html=1;entryX=0.5;entryY=0;entryDx=0;entryDy=0;" edge="1" parent="1" target="brHE4YqnveVC_KoyLmaR-2">
          <mxGeometry width="50" height="50" relative="1" as="geometry">
            <mxPoint x="-110" y="-150" as="sourcePoint" />
            <mxPoint x="-150" y="-110" as="targetPoint" />
          </mxGeometry>
        </mxCell>
        <mxCell id="brHE4YqnveVC_KoyLmaR-4" value="查询缓存" style="rounded=0;whiteSpace=wrap;html=1;fillColor=#f5f5f5;strokeColor=#666666;gradientColor=#b3b3b3;" vertex="1" parent="1">
          <mxGeometry x="-20" y="-80" width="120" height="60" as="geometry" />
        </mxCell>
        <mxCell id="brHE4YqnveVC_KoyLmaR-5" value="" style="endArrow=classic;html=1;exitX=1;exitY=0.5;exitDx=0;exitDy=0;entryX=0;entryY=0.5;entryDx=0;entryDy=0;" edge="1" parent="1" source="brHE4YqnveVC_KoyLmaR-2" target="brHE4YqnveVC_KoyLmaR-4">
          <mxGeometry width="50" height="50" relative="1" as="geometry">
            <mxPoint x="-60" y="-60" as="sourcePoint" />
            <mxPoint x="-10" y="-110" as="targetPoint" />
          </mxGeometry>
        </mxCell>
        <mxCell id="brHE4YqnveVC_KoyLmaR-6" value="低" style="edgeLabel;html=1;align=center;verticalAlign=middle;resizable=0;points=[];" vertex="1" connectable="0" parent="brHE4YqnveVC_KoyLmaR-5">
          <mxGeometry x="-0.24" y="-1" relative="1" as="geometry">
            <mxPoint as="offset" />
          </mxGeometry>
        </mxCell>
        <mxCell id="brHE4YqnveVC_KoyLmaR-7" value="用户管理" style="rounded=0;whiteSpace=wrap;html=1;" vertex="1" parent="1">
          <mxGeometry x="-170" y="-190" width="120" height="60" as="geometry" />
        </mxCell>
        <mxCell id="brHE4YqnveVC_KoyLmaR-8" value="连接管理" style="rounded=0;whiteSpace=wrap;html=1;" vertex="1" parent="1">
          <mxGeometry x="-170" y="-290" width="120" height="60" as="geometry" />
        </mxCell>
        <mxCell id="brHE4YqnveVC_KoyLmaR-9" value="" style="endArrow=classic;html=1;entryX=0.5;entryY=0;entryDx=0;entryDy=0;exitX=0.5;exitY=1;exitDx=0;exitDy=0;" edge="1" parent="1" source="brHE4YqnveVC_KoyLmaR-8" target="brHE4YqnveVC_KoyLmaR-7">
          <mxGeometry width="50" height="50" relative="1" as="geometry">
            <mxPoint x="-210" y="-180" as="sourcePoint" />
            <mxPoint x="-160" y="-230" as="targetPoint" />
          </mxGeometry>
        </mxCell>
        <mxCell id="brHE4YqnveVC_KoyLmaR-11" value="分析器" style="rounded=0;whiteSpace=wrap;html=1;" vertex="1" parent="1">
          <mxGeometry x="-180" y="30" width="140" height="320" as="geometry" />
        </mxCell>
        <mxCell id="brHE4YqnveVC_KoyLmaR-12" value="" style="endArrow=classic;html=1;entryX=0.5;entryY=0;entryDx=0;entryDy=0;exitX=0.5;exitY=1;exitDx=0;exitDy=0;" edge="1" parent="1" source="brHE4YqnveVC_KoyLmaR-2" target="brHE4YqnveVC_KoyLmaR-11">
          <mxGeometry width="50" height="50" relative="1" as="geometry">
            <mxPoint x="-190" y="30" as="sourcePoint" />
            <mxPoint x="-140" y="-20" as="targetPoint" />
          </mxGeometry>
        </mxCell>
        <mxCell id="brHE4YqnveVC_KoyLmaR-13" value="高" style="edgeLabel;html=1;align=center;verticalAlign=middle;resizable=0;points=[];" vertex="1" connectable="0" parent="brHE4YqnveVC_KoyLmaR-12">
          <mxGeometry x="-0.25" relative="1" as="geometry">
            <mxPoint as="offset" />
          </mxGeometry>
        </mxCell>
        <mxCell id="brHE4YqnveVC_KoyLmaR-15" value="命令解析器·语法解析" style="rounded=0;whiteSpace=wrap;html=1;" vertex="1" parent="1">
          <mxGeometry x="-170" y="50" width="120" height="60" as="geometry" />
        </mxCell>
        <mxCell id="brHE4YqnveVC_KoyLmaR-20" value="&lt;span&gt;状态模块（status）&lt;/span&gt;" style="rounded=0;whiteSpace=wrap;html=1;" vertex="1" parent="1">
          <mxGeometry x="90" y="30" width="270" height="50" as="geometry" />
        </mxCell>
        <mxCell id="brHE4YqnveVC_KoyLmaR-21" value="表变更模块（DML）" style="rounded=0;whiteSpace=wrap;html=1;" vertex="1" parent="1">
          <mxGeometry x="90" y="95" width="270" height="50" as="geometry" />
        </mxCell>
        <mxCell id="brHE4YqnveVC_KoyLmaR-22" value="表维护模块（DDL）" style="rounded=0;whiteSpace=wrap;html=1;" vertex="1" parent="1">
          <mxGeometry x="90" y="160" width="270" height="50" as="geometry" />
        </mxCell>
        <mxCell id="brHE4YqnveVC_KoyLmaR-23" value="复制模块（rep）" style="rounded=0;whiteSpace=wrap;html=1;" vertex="1" parent="1">
          <mxGeometry x="90" y="230" width="270" height="50" as="geometry" />
        </mxCell>
        <mxCell id="brHE4YqnveVC_KoyLmaR-24" value="查询优化器（select）&lt;br&gt;(判断最小成本的执行计划)" style="rounded=0;whiteSpace=wrap;html=1;" vertex="1" parent="1">
          <mxGeometry x="90" y="300" width="270" height="50" as="geometry" />
        </mxCell>
        <mxCell id="brHE4YqnveVC_KoyLmaR-25" value="" style="shape=curlyBracket;whiteSpace=wrap;html=1;rounded=1;" vertex="1" parent="1">
          <mxGeometry x="-20" y="50" width="90" height="280" as="geometry" />
        </mxCell>
        <mxCell id="brHE4YqnveVC_KoyLmaR-26" value="执行器" style="rounded=0;whiteSpace=wrap;html=1;" vertex="1" parent="1">
          <mxGeometry x="530" y="30" width="140" height="325" as="geometry" />
        </mxCell>
        <mxCell id="brHE4YqnveVC_KoyLmaR-27" value="" style="endArrow=classic;html=1;exitX=1;exitY=0.5;exitDx=0;exitDy=0;" edge="1" parent="1" source="brHE4YqnveVC_KoyLmaR-24">
          <mxGeometry width="50" height="50" relative="1" as="geometry">
            <mxPoint x="410" y="320" as="sourcePoint" />
            <mxPoint x="529" y="325" as="targetPoint" />
          </mxGeometry>
        </mxCell>
        <mxCell id="brHE4YqnveVC_KoyLmaR-28" value="存储引擎&lt;br&gt;（插件架构）" style="rounded=0;whiteSpace=wrap;html=1;" vertex="1" parent="1">
          <mxGeometry x="827" y="30" width="140" height="325" as="geometry" />
        </mxCell>
        <mxCell id="brHE4YqnveVC_KoyLmaR-29" value="" style="endArrow=classic;html=1;exitX=1;exitY=0.926;exitDx=0;exitDy=0;entryX=0.007;entryY=0.925;entryDx=0;entryDy=0;entryPerimeter=0;exitPerimeter=0;" edge="1" parent="1" source="brHE4YqnveVC_KoyLmaR-26" target="brHE4YqnveVC_KoyLmaR-28">
          <mxGeometry width="50" height="50" relative="1" as="geometry">
            <mxPoint x="670" y="324.5" as="sourcePoint" />
            <mxPoint x="810" y="325" as="targetPoint" />
          </mxGeometry>
        </mxCell>
        <mxCell id="brHE4YqnveVC_KoyLmaR-30" value="InnoDB" style="rounded=1;whiteSpace=wrap;html=1;" vertex="1" parent="1">
          <mxGeometry x="858.5" y="210" width="77" height="40" as="geometry" />
        </mxCell>
        <mxCell id="brHE4YqnveVC_KoyLmaR-31" value="MyISAM" style="rounded=1;whiteSpace=wrap;html=1;" vertex="1" parent="1">
          <mxGeometry x="858.5" y="260" width="77" height="40" as="geometry" />
        </mxCell>
        <mxCell id="brHE4YqnveVC_KoyLmaR-32" value="Memory" style="rounded=1;whiteSpace=wrap;html=1;" vertex="1" parent="1">
          <mxGeometry x="858.5" y="310" width="77" height="40" as="geometry" />
        </mxCell>
        <mxCell id="brHE4YqnveVC_KoyLmaR-34" value="磁盘文件" style="rounded=0;whiteSpace=wrap;html=1;" vertex="1" parent="1">
          <mxGeometry x="-270" y="420" width="270" height="380" as="geometry" />
        </mxCell>
        <mxCell id="brHE4YqnveVC_KoyLmaR-35" value="" style="rounded=0;whiteSpace=wrap;html=1;" vertex="1" parent="1">
          <mxGeometry x="40" y="420" width="1000" height="380" as="geometry" />
        </mxCell>
        <mxCell id="brHE4YqnveVC_KoyLmaR-36" value="" style="endArrow=classic;html=1;" edge="1" parent="1">
          <mxGeometry width="50" height="50" relative="1" as="geometry">
            <mxPoint x="900" y="355" as="sourcePoint" />
            <mxPoint x="900" y="419" as="targetPoint" />
          </mxGeometry>
        </mxCell>
        <mxCell id="brHE4YqnveVC_KoyLmaR-39" value="" style="rounded=0;whiteSpace=wrap;html=1;" vertex="1" parent="1">
          <mxGeometry x="90" y="450" width="270" height="190" as="geometry" />
        </mxCell>
        <mxCell id="brHE4YqnveVC_KoyLmaR-40" value="" style="endArrow=classic;html=1;entryX=0;entryY=0.5;entryDx=0;entryDy=0;exitX=1.007;exitY=0.332;exitDx=0;exitDy=0;exitPerimeter=0;" edge="1" parent="1" source="brHE4YqnveVC_KoyLmaR-34" target="brHE4YqnveVC_KoyLmaR-39">
          <mxGeometry width="50" height="50" relative="1" as="geometry">
            <mxPoint x="-70" y="500" as="sourcePoint" />
            <mxPoint x="-20" y="450" as="targetPoint" />
          </mxGeometry>
        </mxCell>
        <mxCell id="brHE4YqnveVC_KoyLmaR-42" value="1、从磁盘加载数据到缓存池" style="text;html=1;strokeColor=none;fillColor=none;align=center;verticalAlign=middle;whiteSpace=wrap;rounded=0;" vertex="1" parent="1">
          <mxGeometry x="-20" y="520" width="140" height="20" as="geometry" />
        </mxCell>
        <mxCell id="brHE4YqnveVC_KoyLmaR-43" value="缓存池（buffer pool）" style="text;html=1;strokeColor=none;fillColor=none;align=center;verticalAlign=middle;whiteSpace=wrap;rounded=0;" vertex="1" parent="1">
          <mxGeometry x="165" y="640" width="120" height="20" as="geometry" />
        </mxCell>
        <mxCell id="brHE4YqnveVC_KoyLmaR-44" value="" style="rounded=1;whiteSpace=wrap;html=1;" vertex="1" parent="1">
          <mxGeometry x="120" y="470" width="120" height="60" as="geometry" />
        </mxCell>
      </root>
    </mxGraphModel>
  </diagram>
</mxfile>
